<svg
          height="40px"
          width="40px"
          version="1.1"
          id="_x32_"
          xmlns="http://www.w3.org/2000/svg"
          xmlns:xlink="http://www.w3.org/1999/xlink"
          viewBox="0 0 512 512"
          xml:space="preserve"
        >
          <style type="text/css">
            .st0 {
              fill: #fff;
            }
          </style>
          <g>
            <path
              class="st0"
              d="M489.068,22.921C474.871,8.743,455.407,0.009,433.839,0h-167.06v79.513H512V78.16
         C511.99,56.573,503.256,37.129,489.068,22.921z"
            />
            <path
              class="st0"
              d="M147.715,188.51c0.01-35.835,17.35-67.54,44.005-87.428H0v88.919h147.715V188.51z"
            />
            <path
              class="st0"
              d="M147.715,275.928l6.698-2.747c3.379-1.373,6.294-3.734,8.34-6.728c2.034-2.994,3.21-6.53,3.21-10.453
         s-1.176-7.459-3.21-10.453c-2.046-2.994-4.96-5.355-8.34-6.729l-6.698-2.747V211.56H0v88.929h147.715V275.928z"
            />
            <path
              class="st0"
              d="M344.426,323.49v-33.592c-4.545-2.846-8.537-6.501-11.61-10.898c-4.574-6.491-7.271-14.475-7.261-23
         c-0.01-8.527,2.687-16.51,7.261-23.001c3.073-4.396,7.065-8.052,11.61-10.897V188.51c0-24.226-9.771-46.041-25.649-61.928
         c-15.215-15.205-35.903-24.72-58.894-25.5h-6.047c-23,0.78-43.699,10.295-58.914,25.5c-15.857,15.887-25.649,37.702-25.649,61.928
         v33.967c4.416,2.876,8.28,6.531,11.263,10.888c4.406,6.421,7.005,14.276,6.995,22.635c0.01,8.358-2.589,16.213-6.995,22.635
         c-2.983,4.357-6.847,8.013-11.263,10.888v32.524h-10.779h-0.623H0v88.929h258.826c23.415-0.533,44.499-10.126,59.951-25.559
         C334.654,369.531,344.426,347.706,344.426,323.49z"
            />
            <path
              class="st0"
              d="M365.984,323.49c0,35.864-17.369,67.598-44.075,87.487H512v-88.929H365.984V323.49z"
            />
            <path
              class="st0"
              d="M365.984,236.032l-6.926,2.648c-3.478,1.324-6.491,3.695-8.606,6.708c-2.104,3.024-3.34,6.62-3.34,10.612
         c0,3.991,1.236,7.588,3.34,10.611c2.114,3.014,5.127,5.384,8.606,6.709l6.926,2.648v24.522H512V211.56H365.984V236.032z"
            />
            <path
              class="st0"
              d="M365.984,188.51v1.491H512v-88.919H321.978C348.644,120.97,365.984,152.675,365.984,188.51z"
            />
            <path
              class="st0"
              d="M245.22,0H78.16C56.592,0.009,37.129,8.743,22.921,22.921C8.743,37.129,0.009,56.573,0,78.16v1.354h245.22V0z"
            />
            <path
              class="st0"
              d="M0,433.839c0.009,21.588,8.743,41.032,22.921,55.24C37.129,503.256,56.592,511.99,78.16,512H245.22v-79.465H0
         V433.839z"
            />
            <path
              class="st0"
              d="M266.779,512h167.06c21.568-0.01,41.032-8.744,55.229-22.921c14.187-14.208,22.922-33.652,22.932-55.24v-1.304
         H266.779V512z"
            />
          </g>
        </svg>